<?xml version="1.0" encoding="UTF-8" standalone="no"?>
<svg
   xmlns:dc="http://purl.org/dc/elements/1.1/"
   xmlns:cc="http://creativecommons.org/ns#"
   xmlns:rdf="http://www.w3.org/1999/02/22-rdf-syntax-ns#"
   xmlns:svg="http://www.w3.org/2000/svg"
   xmlns="http://www.w3.org/2000/svg"
   xmlns:sodipodi="http://sodipodi.sourceforge.net/DTD/sodipodi-0.dtd"
   xmlns:inkscape="http://www.inkscape.org/namespaces/inkscape"
   inkscape:version="1.0beta2 (368ca91, 2020-02-26)"
   sodipodi:docname="logo.svg"
   viewBox="0 0 1367.5395 578.2564"
   height="578.25641"
   width="1367.5396"
   xml:space="preserve"
   id="svg2"
   version="1.1"><metadata
     id="metadata8"><rdf:RDF><cc:Work
         rdf:about=""><dc:format>image/svg+xml</dc:format><dc:type
           rdf:resource="http://purl.org/dc/dcmitype/StillImage" /><dc:title></dc:title></cc:Work></rdf:RDF></metadata><defs
     id="defs6"><clipPath
       id="clipPath18"
       clipPathUnits="userSpaceOnUse"><path
         inkscape:connector-curvature="0"
         id="path16"
         d="M 0,2000 H 2000 V 0 H 0 Z" /></clipPath></defs><sodipodi:namedview
     inkscape:current-layer="g14"
     inkscape:window-maximized="1"
     inkscape:window-y="-8"
     inkscape:window-x="-8"
     inkscape:cy="139.30463"
     inkscape:cx="1092.5581"
     inkscape:zoom="0.43499999"
     fit-margin-bottom="0"
     fit-margin-right="0"
     fit-margin-left="0"
     fit-margin-top="0"
     showgrid="false"
     id="namedview4"
     inkscape:window-height="1377"
     inkscape:window-width="2560"
     inkscape:pageshadow="2"
     inkscape:pageopacity="0"
     guidetolerance="10"
     gridtolerance="10"
     objecttolerance="10"
     borderopacity="1"
     bordercolor="#666666"
     pagecolor="#ffffff" /><g
     transform="matrix(1.3333333,0,0,-1.3333333,-649.56318,1675.1816)"
     inkscape:label="ai file"
     inkscape:groupmode="layer"
     id="g10"><g
       id="g12"><g
         clip-path="url(#clipPath18)"
         id="g14"><g
           transform="translate(614.8384,1151.0981)"
           id="g70"><path
             inkscape:connector-curvature="0"
             id="path72"
             style="fill:#515256;fill-opacity:1;fill-rule:nonzero;stroke:none"
             d="M 0,0 V -312.909 H 35.102 V 0" /></g><g
           transform="translate(543.9927,1086.6729)"
           id="g74"><path
             inkscape:connector-curvature="0"
             id="path76"
             style="fill:#515256;fill-opacity:1;fill-rule:nonzero;stroke:none"
             d="M 0,0 V -184.06 H 35.102 V 0" /></g><g
           transform="translate(487.1724,977.0928)"
           id="g78"><path
             inkscape:connector-curvature="0"
             id="path80"
             style="fill:#515256;fill-opacity:1;fill-rule:nonzero;stroke:none"
             d="M 0,0 H 74.371 V 35.101 H 0" /></g><g
           transform="translate(561.5435,977.0928)"
           id="g82"><path
             inkscape:connector-curvature="0"
             id="path84"
             style="fill:#515256;fill-opacity:1;fill-rule:nonzero;stroke:none"
             d="M 0,0 H 297.622 V 35.101 H 0" /></g><g
           transform="translate(1350.0605,1151.0981)"
           id="g86"><path
             inkscape:connector-curvature="0"
             id="path88"
             style="fill:#515256;fill-opacity:1;fill-rule:nonzero;stroke:none"
             d="M 0,0 V -312.909 H 35.102 V 0" /></g><g
           transform="translate(1420.9063,1086.6729)"
           id="g90"><path
             inkscape:connector-curvature="0"
             id="path92"
             style="fill:#515256;fill-opacity:1;fill-rule:nonzero;stroke:none"
             d="M 0,0 V -184.06 H 35.101 V 0" /></g><g
           transform="translate(1512.8271,1012.1938)"
           id="g94"><path
             inkscape:connector-curvature="0"
             id="path96"
             style="fill:#515256;fill-opacity:1;fill-rule:nonzero;stroke:none"
             d="M 0,0 H -199.717 V -35.101 H 0" /></g><g
           transform="translate(1367.6113,1012.1938)"
           id="g98"><path
             inkscape:connector-curvature="0"
             id="path100"
             style="fill:#515256;fill-opacity:1;fill-rule:nonzero;stroke:none"
             d="M 0,0 H -226.776 V -35.101 H 0" /></g><g
           transform="translate(929.7349,1144.4521)"
           id="g102"><path
             inkscape:connector-curvature="0"
             id="path104"
             style="fill:#808185;fill-opacity:1;fill-rule:nonzero;stroke:none"
             d="m 0,0 -65.83,-54.315 -44.33,166.249 z" /></g><g
           transform="translate(999.4487,1202.8799)"
           id="g106"><path
             inkscape:connector-curvature="0"
             id="path108"
             style="fill:#515256;fill-opacity:1;fill-rule:nonzero;stroke:none"
             d="M 0,0 0.551,-0.456 -69.714,-58.428 -179.874,53.506 0.551,0.162 Z" /></g><g
           transform="translate(959.2183,844.8359)"
           id="g110"><path
             inkscape:connector-curvature="0"
             id="path112"
             style="fill:#a7a8ac;fill-opacity:1;fill-rule:nonzero;stroke:none"
             d="m 0,0 -78.818,125.617 -77.823,-27.349 61.328,147.033 40.512,-30.461 v -0.006 l 12.095,-44.605 38.535,-44.606 z" /></g><g
           transform="translate(959.2183,844.8359)"
           id="g114"><path
             inkscape:connector-curvature="0"
             id="path116"
             style="fill:#e5e6e8;fill-opacity:1;fill-rule:nonzero;stroke:none"
             d="m 0,0 -156.641,98.268 77.823,27.349 z" /></g><g
           transform="translate(1197.4229,943.1035)"
           id="g118"><path
             inkscape:connector-curvature="0"
             id="path120"
             style="fill:#a7a8ac;fill-opacity:1;fill-rule:nonzero;stroke:none"
             d="m 0,0 -69.006,27.35 -87.636,-125.618 4.172,125.623 38.534,44.606 12.096,44.606 v 0.006 l 40.512,30.46 z" /></g><g
           transform="translate(1197.4229,943.1035)"
           id="g122"><path
             inkscape:connector-curvature="0"
             id="path124"
             style="fill:#e5e6e8;fill-opacity:1;fill-rule:nonzero;stroke:none"
             d="M 0,0 -156.642,-98.268 -69.006,27.35 Z" /></g><g
           transform="translate(1180.4248,1256.3862)"
           id="g126"><path
             inkscape:connector-curvature="0"
             id="path128"
             style="fill:#515256;fill-opacity:1;fill-rule:nonzero;stroke:none"
             d="m 0,0 -110.16,-111.934 -70.265,57.972 0.551,0.456 -0.551,0.161 z" /></g><g
           transform="translate(1180.4248,1256.3862)"
           id="g130"><path
             inkscape:connector-curvature="0"
             id="path132"
             style="fill:#929397;fill-opacity:1;fill-rule:nonzero;stroke:none"
             d="m 0,0 -44.33,-166.25 -65.83,54.316 z" /></g><g
           transform="translate(1095.583,1059.6704)"
           id="g134"><path
             inkscape:connector-curvature="0"
             id="path136"
             style="fill:#414143;fill-opacity:1;fill-rule:nonzero;stroke:none"
             d="m 0,0 -12.096,-44.606 -38.534,-44.605 1.738,52.445 z" /></g><g
           transform="translate(955.0469,970.459)"
           id="g138"><path
             inkscape:connector-curvature="0"
             id="path140"
             style="fill:#414143;fill-opacity:1;fill-rule:nonzero;stroke:none"
             d="M 0,0 -38.534,44.605 -50.629,89.211 -1.738,52.446 Z" /></g><g
           transform="translate(1040.7813,844.8359)"
           id="g142"><path
             inkscape:connector-curvature="0"
             id="path144"
             style="fill:#414143;fill-opacity:1;fill-rule:nonzero;stroke:none"
             d="m 0,0 -40.727,-22.111 -0.054,-0.031 -0.054,0.031 L -81.563,0 l 40.728,26.522 0.054,0.036 0.054,-0.036 z" /></g><g
           transform="translate(1136.0947,1090.1367)"
           id="g146"><path
             inkscape:connector-curvature="0"
             id="path148"
             style="fill:#e5e6e8;fill-opacity:1;fill-rule:nonzero;stroke:none"
             d="m 0,0 -40.512,-30.46 -48.891,-36.772 -1.744,-52.452 0.005,0.006 -4.171,-125.623 -40.728,26.523 v 0.071 l -0.054,-0.036 -0.054,0.036 v -0.071 l -40.727,-26.523 -4.172,125.623 0.006,-0.006 -1.744,52.452 -48.891,36.772 -40.512,30.46 65.829,54.315 h 140.53 z" /></g><g
           transform="translate(1070.2646,1144.4521)"
           id="g150"><path
             inkscape:connector-curvature="0"
             id="path152"
             style="fill:#929397;fill-opacity:1;fill-rule:nonzero;stroke:none"
             d="m 0,0 h -140.53 l 70.265,57.972 z" /></g></g></g></g></svg>
